name C:\Users\u0101727\Documents\MyRepositories\upper-imu-dc\Results\main_mocap_tracking\Case_3\kinematics.mot
datacolumns 15
datarows 28
range 0.50000000 0.77000000
endheader 
time	ground_thorax_rot_x	ground_thorax_rot_y	ground_thorax_rot_z	clav_prot	clav_elev	scapula_abduction	scapula_elevation	scapula_upward_rot	scapula_winging	plane_elv	shoulder_elv	axial_rot	elbow_flexion	pro_sup	
          0.50000000	          1.52043568	         -5.02658278	        -10.34739474	        -22.85694318	         -5.92326895	        -12.85302427	         -5.17534059	         12.54265110	          6.07891930	        -26.13960974	         12.48878822	         42.44816495	          0.00000000	         34.32000000	
          0.51000000	          1.53459796	         -4.98931661	        -10.35122482	        -22.86444826	         -5.95150013	        -12.87341307	         -5.19115685	         12.51826200	          6.09555295	        -25.91474864	         12.50792131	         42.37130356	          0.00000000	         34.32000000	
          0.52000000	          1.54706651	         -4.95799349	        -10.35770817	        -22.86811570	         -5.97711290	        -12.89118038	         -5.20316561	         12.48794869	          6.11250722	        -25.60280357	         12.54248702	         42.15632265	          0.00000000	         34.32000000	
          0.53000000	          1.55733366	         -4.93391871	        -10.36626193	        -22.86619383	         -5.99987167	        -12.90350219	         -5.21100982	         12.45145349	          6.12968166	        -25.20098950	         12.59266857	         41.80479861	          0.00000000	         34.32000000	
          0.54000000	          1.56514153	         -4.91687536	        -10.37639590	        -22.85832714	         -6.02020202	        -12.90968851	         -5.21498224	         12.40872935	          6.14722607	        -24.70723162	         12.65963296	         41.30734815	          0.00000000	         34.32000000	
          0.55000000	          1.57050473	         -4.90516549	        -10.38772120	        -22.84554424	         -6.03905806	        -12.91124294	         -5.21590028	         12.35985441	          6.16551277	        -24.11961358	         12.74502682	         40.64498923	          0.00000000	         34.32000000	
          0.56000000	          1.57385907	         -4.89634103	        -10.39964919	        -22.82960278	         -6.05758119	        -12.91041937	         -5.21498424	         12.30572070	          6.18481912	        -23.44193470	         12.84817576	         39.81495439	          0.00000000	         34.32000000	
          0.57000000	          1.57598385	         -4.88798735	        -10.41134038	        -22.81235916	         -6.07702292	        -12.90904114	         -5.21381250	         12.24823328	          6.20522628	        -22.68641140	         12.96449415	         38.84596019	          0.00000000	         34.32000000	
          0.58000000	          1.57759955	         -4.87815759	        -10.42191231	        -22.79555196	         -6.09876918	        -12.90838647	         -5.21420682	         12.18985008	          6.22672995	        -21.87174786	         13.08622800	         37.79067074	          0.00000000	         34.32000000	
          0.59000000	          1.57916356	         -4.86579246	        -10.43053759	        -22.78066328	         -6.12389857	        -12.90916904	         -5.21782819	         12.13337396	          6.24911999	        -21.02092815	         13.20374696	         36.71686934	          0.00000000	         34.32000000	
          0.60000000	          1.58122950	         -4.85135955	        -10.43668310	        -22.76850193	         -6.15267125	        -12.91122744	         -5.22562116	         12.08143893	          6.27189704	        -20.15396092	         13.30822140	         35.69541927	          0.00000000	         34.32000000	
          0.61000000	          1.58449253	         -4.83687256	        -10.44056486	        -22.75895888	         -6.18495654	        -12.91366356	         -5.23782414	         12.03535368	          6.29470182	        -19.27846397	         13.39533761	         34.77719090	          0.00000000	         34.32000000	
          0.62000000	          1.58921930	         -4.82488739	        -10.44303202	        -22.75121953	         -6.22093206	        -12.91520545	         -5.25444902	         11.99482533	          6.31765020	        -18.39048437	         13.46627159	         33.98016680	          0.00000000	         34.32000000	
          0.63000000	          1.59519117	         -4.81737703	        -10.44478150	        -22.74412801	         -6.26069146	        -12.91424088	         -5.27531645	         11.95915920	          6.34090869	        -17.48290104	         13.52528047	         33.29796722	          0.00000000	         34.32000000	
          0.64000000	          1.60229478	         -4.81491014	        -10.44589291	        -22.73684125	         -6.30338611	        -12.90949879	         -5.29972967	         11.92838554	          6.36412672	        -16.54963374	         13.57729914	         32.70912935	          0.00000000	         34.32000000	
          0.65000000	          1.61079371	         -4.81614622	        -10.44596680	        -22.72958637	         -6.34720975	        -12.90153315	         -5.32642694	         11.90295030	          6.38653642	        -15.58434956	         13.62769576	         32.17425734	          0.00000000	         34.32000000	
          0.66000000	          1.62098887	         -4.81809624	        -10.44426693	        -22.72366266	         -6.39021639	        -12.89323663	         -5.35388908	         11.88248792	          6.40755466	        -14.58000327	         13.68290470	         31.63606942	          0.00000000	         34.32000000	
          0.67000000	          1.63275459	         -4.81719323	        -10.43989067	        -22.72069598	         -6.43118882	        -12.88857127	         -5.38086614	         11.86544698	          6.42716961	        -13.53151045	         13.74946760	         31.03622078	          0.00000000	         34.32000000	
          0.68000000	          1.64541524	         -4.81067686	        -10.43245104	        -22.72180941	         -6.47002678	        -12.89053355	         -5.40686846	         11.85000492	          6.44583432	        -12.43646370	         13.83208138	         30.33510067	          0.00000000	         34.32000000	
          0.69000000	          1.65794301	         -4.79783126	        -10.42276114	        -22.72681269	         -6.50755145	        -12.89946767	         -5.43212211	         11.83465701	          6.46421462	        -11.29064496	         13.93374638	         29.51379644	          0.00000000	         34.32000000	
          0.70000000	          1.66918457	         -4.78046388	        -10.41264336	        -22.73360072	         -6.54493755	        -12.91231225	         -5.45702077	         11.81793997	          6.48300740	        -10.08468542	         14.05794969	         28.56369751	          0.00000000	         34.32000000	
          0.71000000	          1.67806974	         -4.76213814	        -10.40412669	        -22.73842981	         -6.58320217	        -12.92305777	         -5.48181026	         11.79866824	          6.50269764	         -8.80850230	         14.20975443	         27.48135007	          0.00000000	         34.32000000	
          0.72000000	          1.68426837	         -4.74684340	        -10.39878555	        -22.73693567	         -6.62269125	        -12.92386920	         -5.50660188	         11.77725335	          6.52309117	         -7.45885653	         14.39490351	         26.26862705	          0.00000000	         34.32000000	
          0.73000000	          1.68927426	         -4.73830606	        -10.39750740	        -22.72501920	         -6.66240530	        -12.90614099	         -5.53119390	         11.75679961	          6.54283352	         -6.04019290	         14.61850889	         24.92906897	          0.00000000	         34.32000000	
          0.74000000	          1.69639841	         -4.73987278	        -10.40048644	        -22.69930164	         -6.70010659	        -12.86171514	         -5.55496712	         11.74229137	          6.55966455	         -4.55954621	         14.88380787	         23.46508050	          0.00000000	         34.32000000	
          0.75000000	          1.70897749	         -4.75426169	        -10.40710073	        -22.65729198	         -6.73356741	        -12.78418716	         -5.57725559	         11.73830299	          6.57145244	         -3.02464319	         15.19057963	         21.88517856	          0.00000000	         34.32000000	
          0.76000000	          1.72861924	         -4.78337261	        -10.41591973	        -22.59734926	         -6.76156361	        -12.66947883	         -5.59771295	         11.74748452	          6.57693891	         -1.44539934	         15.53426806	         20.21298093	          0.00000000	         34.32000000	
          0.77000000	          1.75477709	         -4.82826411	        -10.42510414	        -22.51877750	         -6.78398034	        -12.51599508	         -5.61639397	         11.77053813	          6.57579875	          0.16603836	         15.90671823	         18.48653419	          0.00000000	         34.32000000	
